<?xml version="1.0" standalone="no"?>
<!DOCTYPE svg PUBLIC "-//W3C//DTD SVG 20010904//EN"
 "http://www.w3.org/TR/2001/REC-SVG-20010904/DTD/svg10.dtd">
<svg version="1.0" xmlns="http://www.w3.org/2000/svg"
 width="353.000000pt" height="707.000000pt" viewBox="0 0 353.000000 707.000000"
 preserveAspectRatio="xMidYMid meet">

<g transform="translate(0.000000,707.000000) scale(0.100000,-0.100000)"
fill="#000000" stroke="none">
<path d="M2537 5144 c-19 -7 -68 -12 -108 -11 -122 1 -133 -15 -105 -147 17
-80 5 -174 -24 -198 -12 -10 -17 -18 -12 -18 6 0 10 -9 9 -20 -1 -11 -5 -20
-9 -20 -4 0 -8 -5 -8 -12 0 -9 3 -9 12 0 15 15 48 16 48 1 0 -6 9 -9 20 -6 11
3 18 2 15 -3 -3 -4 3 -14 12 -21 9 -8 14 -9 10 -3 -5 8 8 11 42 11 29 0 57 5
67 14 10 8 15 9 11 2 -6 -9 4 -11 38 -6 35 4 44 2 42 -8 -2 -8 -2 -11 0 -6 9
15 45 6 50 -13 3 -11 10 -20 15 -20 6 0 5 -6 -2 -15 -14 -17 -5 -36 14 -29 11
4 12 -3 5 -38 -18 -87 -21 -116 -11 -122 6 -3 9 8 8 29 0 19 4 35 9 34 6 0 9
-12 7 -28 -2 -17 5 -37 18 -52 16 -18 18 -19 9 -4 -9 16 -8 30 5 65 l15 45 -2
-37 c-1 -20 -5 -34 -9 -31 -12 7 -9 -12 2 -23 6 -6 12 -24 14 -40 2 -16 4 -32
5 -36 0 -5 10 -8 20 -8 14 0 18 -5 14 -20 -4 -16 1 -23 25 -32 18 -7 34 -19
37 -27 4 -11 2 -11 -8 -2 -12 9 -14 5 -11 -24 1 -20 8 -42 14 -50 7 -8 10 -20
7 -27 -3 -8 -6 -5 -7 7 -1 19 -2 19 -9 1 -10 -25 -1 -77 11 -70 6 4 7 -12 2
-41 -5 -39 -4 -46 7 -40 11 7 12 6 3 -6 -12 -16 -12 -85 0 -111 9 -20 -113 52
-257 152 -68 47 -91 59 -102 50 -10 -8 -13 -7 -11 6 1 11 -25 30 -82 59 -45
23 -79 45 -75 50 5 4 0 5 -9 2 -10 -4 -18 -2 -18 3 0 14 64 12 78 -2 9 -9 15
-9 24 0 7 7 16 12 22 12 5 0 6 -3 3 -7 -11 -10 13 -32 29 -26 8 3 14 0 14 -6
0 -6 7 -11 15 -11 8 0 15 -6 15 -14 0 -14 29 -31 38 -22 14 14 -89 128 -119
133 -13 2 -36 10 -52 18 -17 8 -40 15 -51 15 -12 0 -34 7 -49 15 -15 8 -34 12
-42 8 -9 -3 -21 -1 -28 5 -15 12 -57 -2 -58 -20 0 -7 -4 -4 -9 7 -8 18 -9 17
-11 -7 -1 -16 -3 -32 -4 -38 -1 -5 -3 -15 -4 -21 0 -5 -5 -8 -10 -4 -5 3 -13
1 -16 -5 -4 -6 -29 -10 -56 -9 -55 3 -70 17 -71 70 -1 16 -4 29 -7 29 -15 -1
-51 -27 -70 -51 -18 -24 -27 -26 -84 -26 -72 0 -152 -30 -160 -59 -3 -11 -8
-35 -11 -54 -6 -33 -5 -32 12 10 13 31 29 50 53 62 36 19 59 23 59 10 0 -4 16
-6 35 -4 34 4 35 3 35 -29 0 -46 -10 -79 -23 -79 -6 0 -26 14 -44 32 l-32 31
-10 -24 c-7 -20 -4 -29 22 -56 17 -18 37 -33 45 -33 8 0 55 21 104 46 50 25
92 43 94 41 3 -2 -5 -44 -16 -93 -13 -52 -20 -112 -18 -145 2 -47 0 -56 -12
-51 -13 5 -13 3 -1 -11 7 -9 23 -16 35 -16 11 0 48 -9 80 -20 39 -14 84 -21
132 -21 69 0 73 2 99 31 14 18 37 53 50 79 24 48 45 65 61 50 19 -17 51 -21
51 -5 0 8 -3 15 -6 15 -3 0 -17 9 -30 19 -21 16 -22 20 -10 39 9 14 24 22 42
22 16 0 30 7 34 16 3 9 9 11 12 6 3 -5 44 -37 91 -71 47 -33 90 -65 95 -69 6
-4 37 -27 70 -51 117 -87 144 -107 215 -154 39 -27 69 -51 66 -54 -2 -3 -31
14 -62 36 l-58 41 -16 -52 c-15 -50 -15 -53 2 -56 10 -2 18 -8 18 -13 0 -6 -5
-7 -12 -3 -7 4 -8 3 -4 -5 4 -7 -5 -26 -23 -47 -33 -37 -41 -55 -16 -34 20 16
19 15 -10 -65 -13 -38 -23 -71 -20 -73 2 -2 30 24 62 57 31 34 62 61 68 61 6
0 6 -3 -1 -8 -13 -9 -44 -54 -44 -64 0 -4 12 4 26 19 14 14 28 22 32 19 3 -4
0 -11 -8 -16 -9 -6 -10 -10 -3 -10 6 0 25 17 41 38 23 28 30 32 29 17 -2 -15
3 -19 17 -17 13 3 17 -1 13 -12 -9 -24 51 -134 84 -153 16 -10 29 -21 29 -25
0 -4 4 -8 9 -8 5 0 8 15 5 34 -2 19 1 47 7 63 7 19 7 29 0 31 -6 2 -10 16 -10
30 2 24 2 24 6 5 2 -13 11 -23 19 -23 11 0 13 7 8 28 -4 15 -7 29 -6 32 0 45
2 46 42 45 24 -1 37 2 33 8 -4 6 1 8 10 4 10 -3 17 -2 17 3 0 15 89 1 131 -21
78 -39 104 -164 55 -263 -29 -59 -140 -179 -206 -223 -42 -28 -169 -77 -233
-90 l-28 -5 27 -14 c30 -16 47 -19 24 -4 -12 7 -10 9 8 7 31 -2 28 -9 -18 -37
-22 -14 -38 -30 -35 -37 2 -7 0 -13 -5 -13 -5 0 -17 -15 -25 -32 -15 -32 -32
-62 -83 -141 -13 -21 -28 -37 -34 -37 -5 0 -7 -4 -3 -9 3 -5 0 -13 -6 -16 -5
-4 -8 -13 -5 -21 3 -8 -1 -17 -9 -20 -8 -4 -15 -11 -15 -16 0 -5 -20 -52 -45
-103 -25 -52 -43 -100 -40 -107 6 -18 14 -128 9 -128 -2 0 -19 14 -39 31 -61
54 -60 13 1 -56 19 -22 74 -82 122 -133 48 -52 91 -101 96 -110 5 -9 16 -23
23 -30 7 -8 21 -28 30 -45 9 -18 23 -39 32 -47 9 -8 23 -29 32 -45 29 -55 44
-80 53 -86 5 -4 5 -12 2 -18 -4 -6 -3 -11 2 -11 13 0 22 -49 11 -56 -5 -3 -9
0 -9 6 0 6 -5 8 -11 5 -7 -5 -5 -15 6 -32 9 -14 14 -27 11 -31 -3 -3 -6 0 -6
6 0 7 -4 12 -9 12 -4 0 -7 -18 -5 -40 2 -23 -1 -38 -6 -35 -5 3 -15 -4 -23
-15 -11 -15 -58 -34 -173 -67 -150 -42 -168 -45 -312 -50 -131 -4 -156 -3
-171 11 -10 9 -21 13 -24 9 -4 -3 -7 1 -7 10 0 9 -6 17 -13 17 -8 0 -19 11
-25 25 -6 14 -16 25 -22 25 -5 0 -10 6 -10 14 0 8 -5 18 -11 22 -8 4 -9 -1 -4
-17 l7 -24 -17 23 c-9 12 -42 40 -73 61 -32 21 -64 46 -71 55 -7 8 -28 18 -47
22 -19 3 -34 10 -34 15 0 5 -11 9 -25 9 -14 0 -25 5 -25 11 0 5 -4 8 -9 5 -4
-3 -26 8 -47 24 -21 16 -47 30 -57 30 -10 0 -16 4 -13 9 3 5 -6 12 -22 16 -15
3 -51 23 -81 42 -30 20 -60 36 -67 36 -7 0 -11 4 -8 9 6 9 -21 40 -28 33 -2
-2 -10 5 -17 17 -10 16 -10 19 1 13 7 -4 -4 8 -24 27 -21 19 -38 42 -38 51 0
9 -5 16 -11 15 -6 -2 -13 6 -15 17 -1 11 -8 21 -13 23 -6 2 -11 8 -11 12 0 5
-11 22 -25 37 -83 91 -95 113 -96 171 -1 44 -3 51 -9 32 -23 -73 -1 -161 62
-235 22 -28 47 -65 55 -82 7 -18 30 -44 51 -57 20 -14 60 -48 87 -77 49 -50
179 -149 197 -149 5 0 24 -11 41 -24 29 -21 91 -57 183 -105 17 -9 46 -30 65
-46 45 -40 129 -139 129 -153 0 -5 13 -21 29 -35 26 -21 68 -86 59 -91 -42
-27 -58 -35 -58 -27 0 4 -14 11 -31 15 -17 3 -47 19 -65 36 -61 53 -108 71
-164 64 -34 -5 -50 -3 -50 5 0 6 -15 11 -33 11 -18 0 -37 4 -43 8 -5 5 -31 13
-59 19 -27 7 -63 15 -80 19 -16 4 -34 9 -40 9 -5 1 -17 5 -25 8 -8 4 -37 11
-64 17 -26 6 -61 17 -77 25 -15 8 -38 15 -51 15 -13 0 -34 9 -48 20 -14 11
-32 20 -41 20 -8 0 -34 9 -57 20 -22 11 -46 20 -52 20 -5 0 -10 5 -10 10 0 6
-7 10 -15 10 -14 0 -53 20 -120 61 -16 11 -37 22 -45 26 -24 11 -115 66 -120
74 -3 3 -16 12 -30 19 -39 20 104 -122 210 -209 52 -43 198 -156 325 -251 366
-276 448 -345 514 -426 27 -34 41 -43 77 -49 31 -4 49 -14 61 -32 10 -13 30
-39 46 -56 l27 -32 23 29 c12 16 38 45 58 65 61 61 64 71 62 232 -1 80 3 152
8 160 13 20 36 -9 100 -129 72 -134 112 -201 189 -317 100 -150 307 -483 389
-628 l73 -127 179 0 179 0 -1 793 c-1 435 -5 803 -9 817 -5 17 -8 19 -9 8 -1
-12 -9 -18 -25 -18 -13 0 -27 -7 -30 -16 -6 -15 -8 -15 -26 1 -11 10 -20 24
-20 32 0 7 -4 13 -9 13 -5 0 -7 -18 -4 -40 4 -26 2 -40 -6 -40 -6 0 -11 5 -11
10 0 6 -8 10 -18 10 -19 0 -30 11 -172 171 -41 46 -113 125 -160 175 -232 247
-251 271 -252 314 0 35 6 47 44 85 34 33 47 55 52 85 9 58 44 128 68 136 25 7
47 -11 23 -20 -9 -3 -13 -2 -10 4 3 6 2 10 -4 10 -18 0 -21 -17 -6 -30 13 -10
19 -9 35 5 11 10 20 25 20 34 0 48 95 135 162 147 18 4 43 12 54 20 25 15 34
9 34 -22 0 -13 5 -26 10 -29 6 -4 10 8 10 30 0 42 22 56 50 30 17 -16 18 -20
5 -38 -22 -32 -18 -47 15 -58 43 -16 37 -25 -17 -28 -26 -1 -47 -2 -48 -4 0
-1 1 -34 3 -74 2 -49 8 -73 17 -77 8 -3 38 -1 67 5 29 5 59 10 66 11 7 1 15
11 17 22 8 34 1 120 -10 128 -6 5 -6 8 2 8 11 0 11 52 -1 208 -1 17 2 32 6 32
5 0 7 4 4 8 -2 4 0 14 5 22 7 12 10 13 18 2 6 -10 10 -6 16 15 8 28 8 28 16
-12 4 -22 8 -62 9 -90 0 -27 5 -57 10 -65 6 -10 10 244 10 727 0 696 -1 743
-17 753 -17 11 -17 11 0 6 16 -5 17 9 17 194 0 110 -4 200 -8 200 -5 0 -17 7
-28 16 -18 15 -18 15 3 5 12 -6 24 -11 27 -11 3 0 6 50 6 111 0 103 -2 112
-22 130 -45 37 -109 70 -143 73 -41 3 -83 35 -63 48 9 5 9 8 1 8 -6 0 -24 11
-40 24 -40 33 -128 78 -158 80 -14 0 -25 3 -25 6 0 10 -44 9 -50 0 -4 -6 -18
-6 -39 0 -17 5 -39 6 -48 3 -8 -3 -18 -1 -22 5 -4 7 -38 8 -111 2 -121 -11
-185 0 -177 29 3 13 -2 17 -28 17 -18 0 -49 -5 -68 -12z m51 -11 c-10 -2 -26
-2 -35 0 -10 3 -2 5 17 5 19 0 27 -2 18 -5z m-173 -19 c14 -6 13 -10 -8 -33
-14 -14 -28 -38 -33 -53 -7 -20 -13 -25 -23 -18 -12 7 -13 14 -3 37 11 24 11
26 -2 10 -12 -16 -14 -16 -20 -1 -9 24 -8 31 10 48 16 17 50 21 79 10z m410
-34 c-27 -11 -45 -12 -45 -2 0 5 15 9 33 9 26 1 28 -1 12 -7z m148 3 c-7 -2
-21 -2 -30 0 -10 3 -4 5 12 5 17 0 24 -2 18 -5z m147 -15 c0 -5 4 -7 9 -3 5 3
12 1 16 -5 3 -6 24 -19 45 -30 27 -14 38 -25 34 -35 -5 -13 -10 -13 -33 -1
-14 8 -54 24 -88 36 -85 30 -95 45 -32 46 27 0 49 -4 49 -8z m-575 -18 c-3 -5
-11 -10 -16 -10 -6 0 -7 5 -4 10 3 6 11 10 16 10 6 0 7 -4 4 -10z m323 -56
c-10 -10 -28 6 -28 24 0 15 1 15 17 -1 9 -9 14 -19 11 -23z m270 -23 c3 -8 -1
-12 -9 -9 -7 2 -15 10 -17 17 -3 8 1 12 9 9 7 -2 15 -10 17 -17z m222 -142 c0
-6 -4 -7 -10 -4 -5 3 -10 11 -10 16 0 6 5 7 10 4 6 -3 10 -11 10 -16z m-247
-74 c23 -32 17 -32 -13 0 -13 14 -19 25 -14 25 5 0 17 -12 27 -25z m-142 -2
c13 -16 12 -17 -3 -4 -17 13 -22 21 -14 21 2 0 10 -8 17 -17z m169 -85 c0 -4
-13 5 -29 20 -15 15 -26 31 -23 36 4 8 51 -42 52 -56z m-417 -21 c3 -8 -1 -14
-9 -14 -15 0 -18 9 -7 20 9 9 10 9 16 -6z m-2 -100 c-8 -8 -11 -5 -11 9 0 27
14 41 18 19 2 -9 -1 -22 -7 -28z m69 -136 c7 -14 7 -22 -2 -27 -7 -4 -8 -3 -4
4 4 7 1 12 -8 12 -9 0 -16 7 -16 15 0 21 17 19 30 -4z m58 -73 c16 -16 15 -31
0 -21 -7 4 -19 8 -27 10 -7 1 -18 6 -24 12 -8 8 -4 11 14 11 14 0 30 -5 37
-12z m8 -98 c0 -12 -4 -16 -9 -11 -5 5 -6 14 -3 20 10 15 12 14 12 -9z m-744
-12 c3 -8 19 -12 42 -10 l38 4 -32 -46 c-17 -26 -35 -44 -41 -41 -5 4 -9 -8
-9 -24 0 -24 4 -31 19 -31 30 0 34 -17 6 -22 -15 -3 -26 0 -29 9 -3 8 -10 12
-15 8 -5 -3 -16 16 -24 42 l-14 48 -17 -40 c-10 -22 -23 -65 -30 -95 -8 -30
-18 -54 -25 -52 -6 1 -11 -10 -11 -25 0 -20 -3 -24 -11 -16 -20 20 38 250 72
284 21 21 75 25 81 7z m206 -38 c23 -10 42 -25 42 -32 -1 -7 -11 -32 -23 -55
l-22 -43 -37 26 c-39 28 -42 49 -5 39 12 -3 5 4 -15 16 -40 24 -46 37 -26 57
17 17 36 15 86 -8z m1107 -35 c6 -1 15 3 22 7 7 6 14 4 19 -3 4 -8 3 -9 -4 -5
-7 4 -12 1 -12 -8 0 -22 -13 -20 -41 5 -13 11 -17 17 -9 12 8 -4 20 -8 25 -8z
m-65 -41 c0 -2 -7 -4 -15 -4 -8 0 -15 4 -15 10 0 5 7 7 15 4 8 -4 15 -8 15
-10z m-1096 -66 c-3 -4 -17 -8 -32 -8 l-27 0 25 20 c17 13 27 15 32 7 4 -6 4
-15 2 -19z m-155 -25 c-3 -38 2 -51 27 -68 24 -16 28 -16 43 -1 8 9 16 24 16
34 0 13 10 17 48 18 26 1 47 -1 46 -5 0 -3 -17 -33 -37 -66 l-37 -60 -65 -3
c-36 -2 -84 2 -107 9 -53 14 -57 39 -13 94 17 21 30 41 30 46 0 7 18 14 43 18
5 0 7 -7 6 -16z m894 -243 c4 -17 3 -19 -9 -9 -8 6 -14 18 -14 26 0 20 16 8
23 -17z m147 -315 c0 -8 -4 -15 -10 -15 -5 0 -10 7 -10 15 0 8 5 15 10 15 6 0
10 -7 10 -15z m270 -745 c0 -5 -10 -10 -21 -10 -16 0 -20 -5 -16 -20 3 -11 1
-20 -4 -20 -16 0 -22 29 -9 45 14 17 50 20 50 5z m-60 -80 c0 -5 -4 -10 -10
-10 -5 0 -10 5 -10 10 0 6 5 10 10 10 6 0 10 -4 10 -10z m-13 -100 c-2 -11 -7
-23 -12 -27 -4 -5 -6 2 -3 14 3 12 1 24 -6 27 -6 2 -3 5 6 5 12 1 17 -5 15
-19z"/>
<path d="M2650 5156 c0 -2 11 -6 25 -8 13 -3 22 -1 19 3 -5 9 -44 13 -44 5z"/>
<path d="M1591 4064 c0 -11 3 -14 6 -6 3 7 2 16 -1 19 -3 4 -6 -2 -5 -13z"/>
<path d="M1583 4001 c1 -21 8 -36 17 -39 12 -4 13 -2 3 9 -6 8 -13 25 -16 39
-4 17 -5 15 -4 -9z"/>
<path d="M1700 3855 c7 -8 25 -15 40 -15 15 0 35 -9 45 -20 21 -24 37 -26 28
-5 -8 21 -58 46 -77 39 -9 -3 -16 -1 -16 5 0 6 -7 11 -16 11 -14 0 -14 -3 -4
-15z"/>
<path d="M1637 3775 c-4 -8 -25 -24 -47 -35 -23 -12 -40 -24 -37 -26 2 -3 -4
-32 -14 -65 -24 -77 -25 -107 -4 -89 8 7 25 10 38 6 14 -3 32 0 43 8 18 14 18
15 -9 22 -16 3 -24 10 -18 13 6 4 7 20 1 44 -4 20 -4 39 0 42 17 10 134 2 147
-10 6 -7 10 -15 7 -18 -9 -9 75 -37 93 -31 13 4 14 3 5 -3 -10 -7 -7 -15 12
-36 13 -14 26 -23 29 -20 6 5 37 -50 37 -66 0 -6 -12 -6 -32 0 -18 5 -34 9
-36 9 -1 0 3 -10 10 -22 7 -13 11 -26 10 -30 -1 -5 4 -8 11 -8 15 0 47 -35 47
-51 0 -23 29 13 36 44 3 17 13 42 21 54 9 13 11 23 5 23 -6 0 -13 -6 -16 -12
-3 -7 -3 -3 0 10 3 12 2 22 -3 22 -5 0 -14 14 -20 30 -8 22 -24 36 -53 48 -30
12 -39 22 -36 35 2 9 0 17 -6 17 -12 0 -39 27 -37 37 0 4 -22 19 -50 34 -50
27 -51 27 -75 8 -24 -19 -25 -19 -35 -1 -6 11 -7 22 -4 26 3 3 2 6 -4 6 -6 0
-13 -7 -16 -15z"/>
<path d="M3270 3551 c0 -6 4 -13 10 -16 6 -3 7 1 4 9 -7 18 -14 21 -14 7z"/>
<path d="M1523 3439 c4 -13 7 -36 7 -51 0 -37 34 -47 64 -19 12 12 30 21 39
21 9 0 17 2 17 4 0 2 3 11 6 20 4 11 -5 18 -36 26 -23 6 -47 9 -53 7 -7 -2
-21 0 -31 5 -17 9 -18 7 -13 -13z"/>
<path d="M1495 3300 c-23 -33 -58 -93 -96 -167 -18 -34 -3 -71 36 -90 19 -9
35 -19 35 -22 0 -3 17 -7 37 -9 51 -3 58 -14 34 -53 -29 -47 -27 -63 18 -133
21 -34 41 -71 43 -81 4 -14 8 -7 13 20 4 22 19 65 34 95 23 48 30 55 65 62 21
5 45 16 52 26 16 21 9 29 -11 12 -29 -24 -150 13 -186 57 -11 13 -10 17 4 28
12 8 14 15 8 20 -6 3 -11 1 -11 -5 0 -7 -7 -5 -16 4 -20 20 -30 21 -14 1 9
-10 9 -15 1 -15 -6 0 -11 3 -11 8 -1 18 -18 32 -33 26 -13 -4 -14 -10 -7 -24
6 -11 6 -21 2 -24 -5 -3 -9 0 -10 7 -1 7 -3 26 -5 44 -2 17 1 30 5 27 4 -3 8
4 8 16 0 25 29 56 50 55 10 0 14 -8 12 -23 -3 -20 -1 -21 22 -12 20 7 24 6 20
-5 -3 -8 -9 -14 -12 -13 -20 2 -44 -3 -39 -9 4 -3 2 -12 -3 -18 -7 -9 -6 -14
4 -18 8 -3 13 1 12 11 -1 13 6 16 32 14 30 -2 32 0 26 22 -7 29 9 41 36 26 14
-8 20 -8 20 0 0 6 5 8 10 5 6 -3 10 0 10 7 0 11 2 10 9 0 4 -8 28 -15 52 -18
121 -11 166 -37 122 -70 -15 -11 -12 -12 21 -3 55 15 140 3 174 -25 15 -13 37
-26 49 -30 12 -4 31 -18 42 -32 22 -28 31 -31 41 -14 6 9 16 9 44 -1 20 -7 36
-17 36 -21 0 -4 10 -8 22 -8 12 0 40 -9 62 -20 45 -21 106 -37 178 -46 57 -6
102 -41 116 -87 6 -18 20 -80 32 -140 13 -59 25 -105 27 -103 7 6 -28 189 -44
231 -8 22 -26 52 -40 67 -24 25 -25 30 -14 55 9 19 15 23 20 15 9 -15 22 -3
36 33 16 39 15 48 -3 32 -32 -27 -40 -28 -35 -5 3 13 10 29 16 36 5 6 6 12 1
12 -4 0 1 7 12 16 18 14 18 15 -4 4 -12 -6 -20 -15 -17 -19 3 -5 -2 -12 -11
-15 -12 -5 -14 -1 -9 17 4 15 4 18 -3 8 -5 -7 -15 -10 -22 -6 -8 5 0 19 26 46
21 21 35 42 31 45 -4 4 -13 2 -20 -4 -8 -7 -18 -8 -23 -4 -4 4 -3 0 4 -9 11
-14 9 -20 -14 -38 -15 -12 -30 -21 -34 -21 -4 0 -10 -6 -13 -13 -4 -10 2 -13
19 -9 17 3 24 0 24 -12 0 -9 -6 -16 -12 -16 -10 0 -9 -3 1 -9 9 -6 10 -11 2
-15 -6 -4 -11 -4 -11 -1 0 4 -14 -3 -31 -15 -16 -12 -33 -19 -36 -16 -4 3 -15
-1 -25 -11 -11 -9 -18 -11 -18 -5 0 7 5 12 11 12 8 0 8 4 1 13 -7 8 -4 18 10
32 20 20 20 20 14 -5 -6 -19 -5 -21 3 -10 6 8 15 15 21 15 5 0 10 3 10 8 0 4
0 11 0 16 0 6 -13 6 -32 0 -68 -21 -100 -17 -57 7 30 17 9 18 -26 2 -19 -8
-22 -14 -13 -20 9 -6 7 -10 -9 -14 -13 -4 -23 -12 -23 -20 0 -7 -5 -16 -11
-20 -7 -4 -10 -1 -7 7 8 23 -15 39 -29 20 -10 -13 -14 -14 -21 -3 -5 8 -13 13
-17 11 -14 -4 -45 26 -46 46 -1 17 -2 17 -6 3 -4 -17 -33 -26 -33 -10 1 20 20
34 39 29 14 -3 21 0 21 9 0 8 -6 11 -15 7 -9 -3 -15 -2 -14 3 4 22 -2 35 -12
28 -7 -4 -10 -1 -7 7 2 8 19 20 36 28 18 8 32 18 32 22 0 9 -41 -1 -58 -14 -9
-7 -11 -6 -6 7 9 24 -6 20 -39 -11 -20 -19 -31 -24 -34 -15 -3 6 -9 9 -15 6
-12 -8 -37 26 -31 43 3 7 9 10 14 7 5 -3 14 -2 20 2 8 5 8 8 0 13 -15 10 -82
1 -76 -10 3 -4 11 -7 18 -5 7 1 9 1 5 -1 -12 -7 -10 -20 5 -35 6 -8 17 -23 24
-35 10 -18 9 -21 -13 -26 -13 -2 -46 6 -73 18 -27 13 -64 25 -82 28 -19 2 -63
17 -99 32 -85 36 -186 65 -228 65 -18 0 -31 4 -28 9 3 5 -6 21 -19 35 -23 24
-29 38 -27 58 1 3 -5 8 -12 11 -9 4 -25 -10 -41 -33z m-43 -192 c-7 -7 -12 -8
-12 -2 0 14 12 26 19 19 2 -3 -1 -11 -7 -17z m1132 -184 c9 -3 13 -10 10 -16
-3 -5 -12 -4 -20 3 -12 10 -13 9 -8 -5 3 -9 1 -16 -5 -16 -12 0 -15 23 -4 33
8 8 8 8 27 1z"/>
<path d="M2717 3310 c-21 -24 -21 -30 -3 -30 7 0 16 11 18 25 6 30 7 30 -15 5z"/>
<path d="M3006 3272 c-15 -18 -15 -20 2 -35 17 -16 18 -15 19 18 1 41 1 41
-21 17z"/>
<path d="M3240 3225 c-13 -14 -19 -25 -13 -25 12 0 48 38 41 45 -2 3 -15 -6
-28 -20z"/>
<path d="M2180 3190 c-9 -6 -10 -10 -3 -10 6 0 15 5 18 10 8 12 4 12 -15 0z"/>
<path d="M2589 3133 c-13 -16 -12 -17 4 -4 9 7 17 15 17 17 0 8 -8 3 -21 -13z"/>
<path d="M1575 3100 c-3 -5 -1 -10 4 -10 6 0 11 5 11 10 0 6 -2 10 -4 10 -3 0
-8 -4 -11 -10z"/>
<path d="M2655 3080 c-21 -23 -11 -27 12 -5 8 8 19 12 25 9 7 -4 8 -2 4 4 -10
17 -20 15 -41 -8z"/>
<path d="M2544 3073 c-16 -12 -16 -13 8 -13 14 0 30 6 36 13 8 10 6 13 -8 13
-10 0 -27 -6 -36 -13z"/>
<path d="M2510 3048 c0 -5 -6 -6 -12 -2 -10 5 -10 4 -2 -5 7 -8 19 -9 34 -3
l24 9 -22 5 c-12 4 -22 2 -22 -4z"/>
<path d="M2432 2832 c-8 -6 -2 -9 18 -9 20 0 26 3 18 9 -7 4 -15 8 -18 8 -3 0
-11 -4 -18 -8z"/>
<path d="M3465 2750 c3 -5 10 -10 16 -10 5 0 9 5 9 10 0 6 -7 10 -16 10 -8 0
-12 -4 -9 -10z"/>
<path d="M3523 2625 c0 -33 2 -45 4 -27 2 18 2 45 0 60 -2 15 -4 0 -4 -33z"/>
<path d="M3470 2630 c0 -5 5 -10 10 -10 6 0 10 5 10 10 0 6 -4 10 -10 10 -5 0
-10 -4 -10 -10z"/>
<path d="M1471 2524 c0 -11 3 -14 6 -6 3 7 2 16 -1 19 -3 4 -6 -2 -5 -13z"/>
<path d="M2726 2505 c6 -44 24 -56 24 -16 0 18 -4 30 -9 26 -5 -3 -11 0 -14 7
-2 7 -3 0 -1 -17z"/>
</g>
</svg>
