<?xml version="1.0" standalone="no"?>
<!DOCTYPE svg PUBLIC "-//W3C//DTD SVG 20010904//EN"
 "http://www.w3.org/TR/2001/REC-SVG-20010904/DTD/svg10.dtd">
<svg version="1.0" xmlns="http://www.w3.org/2000/svg"
 width="2000.000000pt" height="1500.000000pt" viewBox="0 0 2000.000000 1500.000000"
 preserveAspectRatio="xMidYMid meet">

<g transform="translate(0.000000,1500.000000) scale(0.100000,-0.100000)"
fill="#000000" stroke="none">
<path d="M9714 11966 c-331 -124 -465 -188 -603 -283 -35 -24 -65 -43 -66 -41
-2 2 0 35 5 73 20 161 -19 160 -192 -3 -60 -56 -128 -113 -153 -127 -42 -25
-50 -26 -128 -20 -153 13 -264 -32 -387 -155 -59 -59 -83 -92 -110 -152 -33
-74 -36 -76 -75 -83 -22 -3 -97 -1 -166 6 -164 16 -204 9 -276 -46 -99 -74
-278 -239 -546 -504 -279 -276 -281 -278 -342 -453 -15 -42 -41 -99 -58 -125
-17 -26 -107 -122 -201 -213 -296 -286 -400 -393 -454 -465 -61 -80 -160 -275
-196 -385 -59 -179 -71 -241 -180 -913 l-33 -208 69 -135 c137 -266 232 -516
283 -749 39 -175 42 -225 16 -249 -16 -14 -30 -17 -61 -13 l-40 5 0 -101 c1
-213 -1 -209 277 -837 189 -426 276 -638 352 -859 46 -132 47 -133 85 -146 78
-27 115 -84 140 -215 65 -350 254 -600 501 -665 39 -10 105 -15 191 -15 204 0
283 -23 389 -111 62 -52 190 -113 281 -135 38 -9 107 -17 154 -19 l86 -3 259
-134 c249 -129 350 -186 442 -249 49 -34 85 -37 114 -8 11 11 23 18 27 15 3
-4 5 -36 4 -72 l-2 -66 37 6 c21 3 97 13 168 21 467 52 829 43 1095 -28 74
-20 91 -21 125 -11 53 16 160 17 227 2 29 -7 109 -40 178 -75 136 -69 205 -86
233 -59 12 13 14 23 6 48 -5 18 -9 33 -9 34 0 10 142 58 231 78 177 39 182 38
248 -49 40 -52 92 -95 117 -95 6 0 10 29 10 77 0 140 37 171 192 160 l84 -6
-7 54 c-13 105 -8 112 176 306 92 96 193 193 223 214 l55 38 67 -72 c36 -39
70 -71 76 -71 14 0 2 63 -23 118 -10 24 -41 69 -69 99 -27 30 -50 58 -50 63 0
15 25 27 109 55 98 32 161 31 211 -5 l32 -23 -17 32 c-39 76 3 112 143 121
150 9 175 31 205 174 12 56 22 72 127 199 290 349 496 696 684 1150 93 224 93
222 16 161 -83 -65 -178 -170 -246 -271 -69 -104 -86 -114 -163 -92 -10 3 -22
-20 -41 -78 -15 -46 -28 -85 -31 -87 -2 -3 -2 27 -1 66 l4 71 -64 -49 c-522
-410 -1039 -786 -1450 -1056 -182 -120 -217 -138 -268 -138 -42 0 -81 27 -107
74 -10 18 -14 17 -59 -23 -27 -24 -61 -49 -76 -57 -25 -13 -30 -12 -49 7 -16
16 -20 29 -16 55 l6 34 -72 0 c-40 0 -77 -4 -83 -8 -6 -4 -21 -26 -33 -50 -12
-23 -25 -42 -29 -42 -4 0 -16 16 -26 35 -24 45 -34 44 -41 -3 -13 -76 -23
-116 -24 -96 -1 12 -8 27 -16 34 -13 11 -21 8 -45 -15 -16 -16 -32 -37 -36
-47 -4 -15 -15 -5 -54 49 -26 37 -59 78 -72 91 l-25 23 18 -53 c10 -29 18 -61
19 -70 0 -26 -17 -31 -39 -9 -19 19 -19 18 -26 -45 -4 -35 -11 -64 -17 -64 -5
0 -35 -24 -67 -54 -63 -61 -93 -76 -151 -76 -65 0 -269 -29 -392 -57 l-118
-26 -162 36 c-320 71 -595 113 -893 137 -290 23 -485 83 -727 221 l-89 51 28
18 c59 36 91 90 78 130 -6 20 -7 20 -25 -3 -23 -30 -54 -42 -145 -61 l-70 -15
-125 122 c-69 67 -253 241 -410 386 -338 313 -793 767 -905 902 -98 118 -148
211 -263 494 -127 311 -115 290 -147 255 -10 -11 -26 -20 -36 -20 -24 0 -66
53 -80 100 -22 74 25 129 87 101 13 -6 24 -7 24 -2 0 4 -21 149 -46 322 -25
173 -43 333 -41 356 2 23 27 90 55 150 28 59 53 117 56 128 3 11 33 269 66
574 36 325 71 604 86 675 85 403 269 761 570 1106 192 221 708 708 844 796
111 73 610 367 770 455 297 162 570 260 865 310 91 16 189 22 405 27 326 8
336 10 378 92 19 37 22 60 22 147 l0 103 -38 -6 c-50 -8 -90 10 -176 80 -38
30 -88 62 -111 70 -42 14 -42 14 -261 -68z m-3416 -5719 c12 -12 42 -69 67
-127 25 -57 57 -124 70 -148 14 -25 25 -46 25 -48 0 -3 -17 4 -39 15 -58 30
-87 70 -94 131 -5 43 -24 92 -75 193 -9 17 26 5 46 -16z m-96 -78 c16 -46 27
-87 25 -91 -4 -13 -107 122 -107 141 0 20 27 43 45 38 6 -2 22 -41 37 -88z"/>
<path d="M11287 11751 l-119 -6 -31 -36 c-18 -19 -36 -43 -42 -52 -9 -16 -14
-16 -63 -1 -44 13 -72 14 -162 7 -129 -12 -174 -34 -209 -105 -52 -108 2 -218
157 -319 126 -83 273 -127 472 -144 69 -6 84 -12 200 -78 267 -152 553 -343
1108 -741 205 -147 389 -274 409 -282 48 -21 94 -11 188 37 42 21 80 39 84 39
4 0 8 -42 8 -92 1 -115 18 -190 83 -361 55 -145 98 -211 170 -264 143 -104
190 -168 211 -287 12 -72 8 -132 -18 -233 l-15 -61 61 -119 c91 -175 214 -330
322 -404 18 -13 24 -28 30 -83 11 -107 54 -135 112 -73 l30 32 -6 -48 c-38
-277 -45 -509 -18 -592 9 -28 9 -29 10 -5 3 62 32 313 51 428 22 134 77 356
109 442 10 27 15 50 9 50 -13 0 -67 -57 -100 -109 -16 -23 -36 -41 -46 -41
-17 0 -19 14 -25 188 -4 103 -11 234 -17 292 -20 200 -80 685 -89 712 -5 14
-210 348 -456 742 -475 760 -509 808 -677 957 -158 139 -355 272 -543 366
-183 92 -486 198 -655 229 -88 16 -366 24 -533 15z"/>
<path d="M7415 7898 c-9 -29 -85 -486 -85 -511 0 -45 40 -77 97 -77 67 0 93
20 93 71 0 35 -3 39 -25 39 -20 0 -25 5 -25 25 0 25 66 414 76 448 5 15 -3 17
-61 17 -44 0 -67 -4 -70 -12z"/>
<path d="M10195 7888 c-2 -13 -9 -52 -15 -88 -20 -122 -20 -121 -40 -110 -31
16 -108 11 -149 -10 -55 -28 -81 -75 -99 -184 -19 -108 -9 -146 41 -173 43
-22 130 -13 161 16 l24 22 25 -25 c29 -29 86 -35 132 -14 21 9 25 18 25 55 0
39 -2 43 -25 43 -17 0 -25 5 -25 18 0 9 18 118 40 242 22 123 40 226 40 227 0
2 -29 3 -65 3 -59 0 -65 -2 -70 -22z m-60 -308 c8 -12 -14 -131 -28 -147 -13
-18 -62 -16 -77 2 -17 21 -6 112 16 136 18 20 78 26 89 9z"/>
<path d="M10665 7813 c-23 -136 -23 -135 -45 -123 -25 13 -91 13 -127 -1 -35
-13 -70 -46 -89 -81 -21 -40 -46 -185 -39 -219 17 -76 139 -108 204 -54 l30
26 25 -26 c18 -18 36 -25 65 -25 67 0 89 16 93 66 3 42 2 44 -24 44 -16 0 -28
5 -28 10 0 6 18 112 40 235 22 123 40 229 40 235 0 6 -27 10 -64 10 l-64 0
-17 -97z m-53 -283 c-4 -75 -20 -104 -58 -108 -45 -4 -57 16 -49 79 9 63 34
91 78 87 l32 -3 -3 -55z"/>
<path d="M10896 7638 c-26 -150 -50 -283 -53 -295 -5 -22 -2 -23 60 -23 l66 0
10 53 c6 28 15 82 22 119 12 75 33 101 76 96 35 -4 40 -32 23 -134 -13 -81 -4
-115 37 -133 31 -14 85 -14 118 1 21 9 25 18 25 55 0 40 -2 43 -26 43 -25 0
-26 2 -20 38 3 20 8 73 12 118 7 79 6 81 -21 102 -37 29 -117 30 -163 2 l-34
-21 6 28 c11 48 36 197 36 211 0 8 -19 12 -63 12 l-63 0 -48 -272z"/>
<path d="M7685 7686 c-50 -22 -82 -68 -99 -145 -24 -103 -21 -164 7 -197 20
-23 34 -28 83 -32 50 -3 64 0 95 21 l36 24 22 -25 c19 -22 28 -24 78 -20 64 6
83 23 83 75 0 28 -3 33 -24 33 -14 0 -27 3 -30 8 -2 4 6 65 18 135 l23 127
-59 0 c-32 0 -58 -4 -58 -9 0 -6 -12 -3 -27 5 -35 17 -108 18 -148 0z m131
-111 c9 -22 -14 -137 -28 -147 -21 -13 -65 -9 -78 7 -20 24 4 127 34 147 19
13 66 9 72 -7z"/>
<path d="M8060 7694 c0 -3 20 -43 45 -88 25 -46 45 -88 45 -94 0 -7 -34 -50
-75 -96 -41 -46 -75 -87 -75 -90 0 -3 30 -6 67 -6 l66 0 47 52 47 53 27 -53
26 -52 71 0 c39 0 69 4 67 8 -1 4 -23 46 -48 94 l-44 86 37 43 c20 24 58 68
83 97 l47 52 -71 0 -70 0 -49 -55 -49 -55 -27 55 -27 55 -70 0 c-38 0 -70 -3
-70 -6z"/>
<path d="M9168 7686 c-16 -8 -28 -11 -28 -5 0 5 -26 9 -58 9 l-58 0 -49 -277
c-26 -152 -50 -285 -53 -295 -4 -16 3 -18 61 -18 76 0 67 -12 92 136 l18 101
29 -15 c39 -19 121 -11 156 15 41 30 61 73 78 163 18 96 13 138 -21 170 -32
30 -125 39 -167 16z m56 -164 c-1 -71 -20 -102 -64 -102 -42 0 -49 16 -38 85
13 75 22 87 67 83 l36 -3 -1 -63z"/>
<path d="M9523 7680 c-53 -27 -87 -92 -104 -201 -10 -67 -9 -81 6 -112 9 -20
29 -40 46 -47 43 -18 125 -8 153 19 l24 22 25 -25 c19 -19 36 -26 66 -26 67 0
89 16 93 66 3 42 2 44 -24 44 -33 0 -33 -3 -8 135 11 60 20 115 20 123 0 10
-17 13 -72 13 -40 -1 -98 1 -128 4 -44 5 -64 1 -97 -15z m143 -104 c7 -18 -15
-127 -28 -143 -14 -18 -63 -16 -78 2 -17 20 -3 112 21 136 22 22 77 25 85 5z"/>
<path d="M11900 7693 c-66 -25 -100 -81 -120 -199 -17 -95 -8 -139 33 -164 45
-28 115 -26 159 4 l34 23 28 -23 c19 -17 39 -24 69 -24 60 0 87 22 87 71 0 35
-3 39 -25 39 -31 0 -31 9 -5 154 11 60 20 111 20 113 0 2 -27 3 -60 3 -33 0
-60 -4 -60 -9 0 -6 -12 -3 -27 5 -28 14 -104 18 -133 7z m124 -111 c3 -5 0
-39 -6 -76 -12 -75 -32 -95 -84 -82 -26 7 -27 8 -21 67 6 72 26 99 73 99 18 0
35 -4 38 -8z"/>
<path d="M8540 7682 c0 -5 -9 -59 -20 -122 -37 -202 -28 -237 63 -247 58 -7
88 1 125 32 29 24 31 25 37 6 8 -27 58 -45 106 -38 54 7 69 22 69 68 0 35 -3
39 -25 39 -21 0 -25 5 -25 29 0 25 20 150 35 219 5 21 3 22 -59 22 -75 0 -68
10 -92 -135 -18 -113 -33 -137 -78 -133 -28 3 -31 7 -34 41 -2 20 4 74 12 120
9 46 16 89 16 95 0 8 -22 12 -65 12 -36 0 -65 -4 -65 -8z"/>
<path d="M11362 7567 c-29 -165 -29 -201 4 -234 l25 -25 -20 -15 c-29 -19 -51
-65 -51 -103 0 -97 166 -130 267 -54 67 51 83 96 128 359 15 83 29 160 32 173
5 21 3 22 -60 22 -76 0 -68 12 -93 -140 -10 -66 -23 -110 -32 -117 -23 -19
-71 -16 -79 4 -6 14 3 90 23 216 l7 37 -65 0 -65 0 -21 -123z m187 -274 c-11
-59 -50 -103 -77 -87 -47 30 -2 102 84 134 1 0 -3 -21 -7 -47z"/>
<path d="M12272 7566 c-29 -165 -29 -200 4 -233 l25 -25 -20 -15 c-29 -19 -51
-65 -51 -103 0 -97 166 -130 267 -54 64 48 82 96 124 331 21 120 39 219 39
220 0 2 -29 3 -64 3 l-65 0 -10 -52 c-6 -29 -16 -84 -22 -123 -12 -76 -26 -95
-71 -95 -39 0 -44 19 -28 119 7 47 15 101 18 119 l4 32 -64 0 -64 0 -22 -124z
m187 -277 c-16 -76 -65 -111 -93 -66 -16 25 10 66 59 94 22 12 40 21 42 20 1
-1 -3 -23 -8 -48z"/>
</g>
</svg>
